<?xml version="1.0" standalone="no"?>
<!DOCTYPE svg PUBLIC "-//W3C//DTD SVG 20010904//EN"
 "http://www.w3.org/TR/2001/REC-SVG-20010904/DTD/svg10.dtd">
<svg version="1.0" xmlns="http://www.w3.org/2000/svg"
 width="640.000000pt" height="640.000000pt" viewBox="0 0 640.000000 640.000000"
 preserveAspectRatio="xMidYMid meet">
<metadata>
Created by potrace 1.14, written by Peter Selinger 2001-2017
</metadata>
<g transform="translate(0.000000,640.000000) scale(0.100000,-0.100000)"
fill="#000000" stroke="none">
<path d="M2895 5716 c-16 -7 -40 -24 -51 -37 -12 -13 -118 -168 -236 -344
-118 -176 -380 -567 -583 -870 -202 -302 -498 -744 -656 -980 -322 -480 -322
-479 -277 -565 19 -38 42 -58 146 -125 120 -78 142 -99 868 -820 509 -506 759
-748 791 -765 62 -33 160 -39 235 -15 50 16 104 68 1096 1059 1156 1154 1096
1087 1096 1220 0 132 33 94 -752 878 -630 630 -712 708 -749 718 -98 25 -38
78 -1027 -908 l-899 -897 595 890 c327 490 639 955 693 1035 119 176 139 219
130 269 -12 65 -42 97 -168 182 -103 69 -129 82 -172 85 -30 3 -62 -1 -80 -10z
m180 -183 c116 -80 128 -95 100 -122 -17 -16 -250 -74 -399 -99 -34 -6 -41
-21 76 156 58 87 94 132 106 132 10 0 62 -30 117 -67z m-121 -455 c-4 -7 -33
-51 -65 -98 l-57 -85 -198 -43 c-110 -23 -205 -42 -212 -42 -10 0 47 93 115
189 3 4 389 89 411 90 8 1 10 -4 6 -11z m933 -220 c51 -51 93 -100 93 -108 0
-8 -56 -71 -125 -140 l-125 -125 6 220 c4 121 11 226 17 233 19 25 43 10 134
-80z m-407 -409 l0 -211 -82 -84 c-45 -46 -84 -84 -87 -84 -3 0 -4 97 -1 215
l5 215 80 80 c44 44 81 80 82 80 2 0 3 -95 3 -211z m1162 -346 c537 -539 547
-549 553 -595 14 -97 64 -41 -1024 -1132 -553 -554 -1024 -1021 -1045 -1037
-32 -24 -49 -29 -93 -29 -30 0 -66 6 -81 14 -15 8 -270 258 -567 555 l-540
541 1115 1115 c613 613 1120 1115 1125 1115 6 0 256 -246 557 -547z m-2022
480 c-1 -5 -29 -48 -63 -98 l-62 -89 -200 -43 c-110 -24 -203 -42 -208 -40 -4
1 22 45 57 98 62 93 66 97 109 103 24 4 111 22 193 41 162 37 174 39 174 28z
m432 -565 l-4 -213 -85 -85 -85 -85 6 219 5 220 78 78 c43 43 80 78 83 78 3 0
4 -96 2 -212z m-771 55 c-5 -10 -34 -54 -64 -97 l-55 -80 -203 -43 c-111 -24
-204 -41 -207 -39 -3 4 94 161 115 185 4 5 381 89 406 90 14 1 16 -3 8 -16z
m344 -486 l-8 -215 -84 -84 -84 -83 7 220 6 220 81 82 c45 45 83 81 85 78 2
-2 1 -100 -3 -218z m-675 -3 c0 -4 -72 -117 -116 -182 -1 -2 -31 -9 -66 -17
-34 -7 -128 -27 -207 -44 -79 -18 -145 -30 -147 -28 -2 2 25 46 60 99 56 82
69 96 98 101 18 3 87 17 153 32 220 48 225 49 225 39z m248 -420 l-5 -216 -79
-79 c-43 -43 -82 -79 -86 -79 -4 0 -5 12 -4 28 2 15 4 110 5 211 l1 183 82 84
c45 46 84 84 86 84 3 0 3 -97 0 -216z m-423 -98 c18 -13 18 -18 -4 -237 -12
-123 -27 -229 -33 -236 -26 -32 -54 -12 -250 184 -109 109 -198 205 -198 214
0 34 33 46 165 59 72 7 159 16 195 20 100 11 105 11 125 -4z"/>
<path d="M3665 3311 c-77 -21 -246 -66 -375 -100 -364 -98 -365 -98 -400 -137
-24 -28 -30 -44 -30 -80 0 -25 6 -57 14 -72 8 -15 159 -171 335 -346 l320
-320 59 -4 c55 -4 61 -2 95 28 38 33 42 43 86 210 11 41 36 136 56 210 141
520 138 509 120 556 -18 46 -60 80 -111 89 -16 2 -90 -12 -169 -34z"/>
<path d="M1370 2990 c-25 -25 -25 -41 1 -74 23 -29 60 -34 83 -10 24 23 19 60
-10 83 -33 26 -49 26 -74 1z"/>
<path d="M1627 2742 c-23 -25 -21 -54 3 -80 27 -28 65 -28 84 0 22 31 20 45
-9 73 -29 30 -56 32 -78 7z"/>
</g>
</svg>
